<svg width="236" height="47" viewBox="0 0 236 47" fill="none" xmlns="http://www.w3.org/2000/svg">
<g clip-path="url(#clip0_1_6095)">
<path d="M37.5276 4.83592C32.6094 1.05886 26.407 -0.604499 20.2751 0.209185C14.1433 1.02287 8.58028 4.24747 4.80122 9.17864C1.13283 14.1311 -0.451971 20.3392 0.389754 26.4596C1.23148 32.58 4.43203 38.1204 9.29885 41.8822C14.1657 45.6439 20.3074 47.3243 26.395 46.5598C32.4827 45.7954 38.0267 42.6474 41.8274 37.7973V37.7371C45.5806 32.7847 47.234 26.537 46.426 20.3601C45.618 14.1833 42.4143 8.58005 37.5156 4.77577L37.5276 4.83592ZM10.0565 16.8656C8.26613 19.6379 7.60721 22.9992 8.21716 26.2488C8.30021 26.6996 8.21754 27.1656 7.98458 27.5596C7.75162 27.9536 7.38428 28.2488 6.95111 28.3901C6.7008 28.4675 6.43716 28.4913 6.17717 28.4599C5.91718 28.4285 5.66661 28.3426 5.44157 28.2078C5.21654 28.0729 5.02205 27.8921 4.87062 27.6769C4.71919 27.4618 4.61416 27.217 4.56233 26.9585C3.77176 22.7382 4.62737 18.3734 6.95111 14.7724C7.11307 14.5293 7.32862 14.3271 7.58093 14.1817C7.83324 14.0363 8.11549 13.9515 8.40568 13.934C8.69587 13.9166 8.98616 13.9669 9.25387 14.081C9.52159 14.1951 9.75949 14.37 9.94905 14.592C10.222 14.9074 10.384 15.3047 10.41 15.7223C10.4359 16.1399 10.3242 16.5545 10.0924 16.9017L10.0565 16.8656ZM15.3238 12.2101L14.9058 12.4267C14.5304 12.6224 14.1001 12.6837 13.6856 12.6007C13.2711 12.5176 12.8969 12.295 12.6245 11.9695C12.444 11.7525 12.3139 11.4977 12.2437 11.2235C12.1735 10.9494 12.1651 10.663 12.2189 10.3851C12.2727 10.1073 12.3874 9.84506 12.5547 9.61759C12.722 9.39012 12.9376 9.20315 13.1858 9.07036L13.7353 8.80571C13.9747 8.69189 14.2354 8.63078 14.5001 8.62641C14.7648 8.62204 15.0274 8.67452 15.2703 8.78038C15.5133 8.88623 15.7311 9.04302 15.9092 9.2403C16.0873 9.43758 16.2216 9.67082 16.3032 9.92448C16.4554 10.3607 16.4433 10.838 16.2694 11.2659C16.0955 11.6938 15.7718 12.0426 15.3596 12.2462L15.3238 12.2101Z" fill="white"/>
<path d="M83.1176 20.3784C81.9135 19.1377 80.4729 18.1551 78.8822 17.4894C77.2915 16.8238 75.5835 16.4888 73.8611 16.5048C73.2516 16.507 72.6437 16.5674 72.0456 16.6852C71.4302 16.8025 70.8265 16.9756 70.2421 17.2025C69.6686 17.4258 69.1234 17.7166 68.6177 18.0687C68.1368 18.406 67.7064 18.8111 67.3397 19.2716V7.24194H60.7825V30.1705C60.7632 32.0493 61.1123 33.9134 61.8097 35.6561C62.461 37.2597 63.4188 38.7188 64.6284 39.9507C65.8154 41.1567 67.2282 42.1135 68.7849 42.7656C70.392 43.4437 72.1187 43.7874 73.8611 43.7761C75.613 43.7907 77.3505 43.4555 78.9731 42.7897C80.1054 42.3217 81.1637 41.6895 82.1143 40.913C82.4656 40.6319 82.8006 40.3307 83.1176 40.0108C84.3225 38.7752 85.2724 37.3115 85.9125 35.7042C86.6189 33.9474 86.9682 32.0657 86.9397 30.1705C86.9638 28.303 86.6145 26.4498 85.9125 24.7211C85.2653 23.1067 84.3165 21.6325 83.1176 20.3784ZM73.8611 37.2199C72.9921 37.2241 72.1326 37.0394 71.3409 36.6786C70.5596 36.3264 69.8568 35.819 69.2746 35.1869C68.676 34.5455 68.2056 33.794 67.8891 32.9735C67.5654 32.125 67.3994 31.2238 67.3994 30.3149C67.3994 30.3149 67.3994 30.2427 67.3994 30.2066C67.3984 29.3121 67.5687 28.4257 67.9011 27.5962C68.2259 26.7727 68.6952 26.0148 69.2866 25.3587C69.8693 24.7086 70.5708 24.1776 71.3529 23.7948C72.1354 23.4021 72.9987 23.2002 73.873 23.2053C74.7413 23.1951 75.6013 23.3758 76.3932 23.7346C77.1752 24.0812 77.8814 24.58 78.4714 25.2023C79.0688 25.8515 79.5425 26.6059 79.8689 27.4278C80.2132 28.3129 80.3875 29.2559 80.3825 30.2066C80.3887 31.1535 80.2143 32.0928 79.8689 32.9735C79.5436 33.7923 79.0697 34.5429 78.4714 35.1869C77.8826 35.8167 77.1764 36.3235 76.3932 36.6786H76.2618C75.5031 37.0042 74.6857 37.1681 73.8611 37.1598V37.2199Z" fill="white"/>
<path d="M106.612 31.7464C106.611 32.4343 106.481 33.1158 106.229 33.7554C105.976 34.3945 105.621 34.9877 105.178 35.5117C104.732 36.0029 104.202 36.4103 103.614 36.7147L103.291 36.835C102.791 37.0595 102.25 37.1783 101.703 37.1838C101.348 37.2106 100.992 37.2025 100.64 37.1598C100.321 37.1027 100.009 37.0141 99.7081 36.8951C99.1184 36.657 98.5852 36.2963 98.1434 35.8365C97.9183 35.5971 97.7182 35.3351 97.5462 35.0546C97.3603 34.754 97.2042 34.4357 97.0804 34.1042C96.9717 33.807 96.8878 33.5012 96.8296 33.19C96.7689 32.8684 96.733 32.5427 96.7221 32.2156C96.7221 32.0712 96.7221 31.9389 96.7221 31.7825V17.4912H90.2246V31.7464C90.2246 32.2156 90.2246 32.6607 90.2246 33.1058C90.3294 34.3442 90.6152 35.5603 91.0726 36.7147C91.6237 38.1321 92.4616 39.4184 93.5331 40.492C94.049 41.0079 94.6175 41.4675 95.2291 41.8634C95.8431 42.2679 96.4952 42.6104 97.176 42.8859C98.5887 43.4544 100.098 43.7405 101.619 43.728C102.336 43.7257 103.051 43.6327 103.745 43.4513C104.44 43.2674 105.116 43.0177 105.764 42.7054C106.417 42.3879 107.044 42.0178 107.639 41.5987C107.997 41.3341 108.32 41.0454 108.666 40.7687C109.012 40.492 109.12 40.4318 109.323 40.2394L111.473 43.2468H113.049V17.4912H106.612V31.7464Z" fill="white"/>
<path d="M142.682 24.709C142.503 24.288 142.324 23.891 142.121 23.5061C141.519 22.3639 140.764 21.3113 139.875 20.3784C139.586 20.0752 139.279 19.7899 138.956 19.5242C137.986 18.6996 136.899 18.0264 135.731 17.5273C134.937 17.1915 134.113 16.9336 133.27 16.7574C132.401 16.5877 131.517 16.5031 130.631 16.5048C130.017 16.5064 129.405 16.5668 128.803 16.6852C128.493 16.7454 128.194 16.8176 127.895 16.9018L127 17.2025C126.427 17.4269 125.882 17.7175 125.375 18.0687C125.135 18.2446 124.903 18.4333 124.683 18.6341C124.475 18.8346 124.28 19.0475 124.097 19.2716V7.24194H117.552V30.1705C117.527 32.0498 117.876 33.9151 118.579 35.6561C119.222 37.2613 120.176 38.7213 121.386 39.9507C123.187 41.7893 125.49 43.0457 128.003 43.5596C128.869 43.7299 129.749 43.8145 130.631 43.8122C131.516 43.8119 132.399 43.7314 133.27 43.5716C133.688 43.4874 134.106 43.3791 134.524 43.2588C134.93 43.1374 135.329 42.9928 135.719 42.8258C136.117 42.6574 136.515 42.4769 136.913 42.2844C137.649 41.8884 138.345 41.4211 138.991 40.889L139.087 40.8048C139.374 40.5642 139.648 40.3116 139.911 40.0469C140.205 39.7487 140.484 39.4355 140.747 39.1086C141.286 38.4394 141.758 37.7181 142.157 36.9553C142.36 36.5703 142.539 36.1613 142.718 35.7523C143.062 34.9029 143.318 34.0201 143.482 33.1178C143.657 32.1614 143.745 31.1911 143.745 30.2186C143.744 29.2662 143.656 28.3158 143.482 27.3796C143.309 26.4637 143.041 25.5687 142.682 24.709ZM133.127 36.6305C132.332 36.987 131.471 37.1713 130.601 37.1713C129.73 37.1713 128.87 36.987 128.075 36.6305C127.295 36.2751 126.593 35.7682 126.008 35.1388C125.717 34.8216 125.453 34.4794 125.22 34.1163C124.739 33.349 124.411 32.4952 124.253 31.6021C124.166 31.1258 124.122 30.6427 124.121 30.1585C124.121 30.1585 124.121 30.0502 124.121 30.0021C124.123 29.5982 124.163 29.1953 124.241 28.7991C124.324 28.3593 124.448 27.9283 124.611 27.512C124.776 27.0946 124.975 26.6921 125.208 26.309C125.444 25.9403 125.707 25.5904 125.996 25.2624C126.581 24.615 127.282 24.0844 128.063 23.6986C128.849 23.3044 129.716 23.1025 130.595 23.1091C131.463 23.1008 132.323 23.2814 133.115 23.6384C133.931 23.9777 134.668 24.4859 135.277 25.1301C135.874 25.7793 136.348 26.5337 136.674 27.3556C137.026 28.2387 137.2 29.1831 137.188 30.1344C137.206 31.9795 136.522 33.7617 135.277 35.1147C134.717 35.7096 134.053 36.1949 133.318 36.5463L133.127 36.6305Z" fill="white"/>
<path d="M171.921 24.7089C171.264 23.1036 170.316 21.6351 169.126 20.3782C168.533 19.7819 167.89 19.2385 167.203 18.7542C166.5 18.2807 165.751 17.8778 164.97 17.5513C163.357 16.8623 161.621 16.5143 159.87 16.5287C159.26 16.5304 158.652 16.5909 158.054 16.7092C157.438 16.8248 156.835 16.998 156.251 17.2265C155.673 17.4497 155.124 17.7404 154.614 18.0926C154.136 18.4333 153.706 18.838 153.336 19.2956V7.26587H146.791V24.9495V30.1945C146.788 31.1545 146.872 32.1129 147.042 33.0575C147.213 33.9555 147.474 34.834 147.818 35.68C148.452 37.2711 149.395 38.7192 150.59 39.9398C151.786 41.1604 153.211 42.1291 154.782 42.7895C156.393 43.4679 158.123 43.8116 159.87 43.8C161.618 43.8163 163.352 43.4809 164.97 42.8136C165.754 42.4927 166.503 42.0895 167.203 41.6106C167.895 41.1464 168.539 40.6145 169.126 40.0227C171.317 37.7451 172.645 34.7648 172.877 31.6019C172.924 31.1208 172.948 30.6275 172.948 30.1223C172.949 29.6362 172.925 29.1504 172.877 28.6667C172.763 27.3057 172.44 25.9706 171.921 24.7089ZM162.366 36.6303C161.573 36.9874 160.714 37.1719 159.846 37.1719C158.977 37.1719 158.119 36.9874 157.326 36.6303C156.547 36.268 155.842 35.7621 155.247 35.1387C154.649 34.4973 154.178 33.7458 153.862 32.9252C153.521 32.0437 153.35 31.1045 153.36 30.1584C153.36 30.002 153.36 29.8576 153.36 29.7013C153.398 28.9639 153.552 28.2373 153.814 27.5479C154.139 26.7244 154.608 25.9665 155.2 25.3104C155.791 24.6651 156.496 24.135 157.278 23.7466C158.06 23.3526 158.924 23.1506 159.798 23.1571C160.666 23.1469 161.526 23.3275 162.318 23.6864C163.101 24.0247 163.805 24.5246 164.384 25.154C164.991 25.7962 165.466 26.5525 165.782 27.3795C166.133 28.2627 166.308 29.207 166.296 30.1584C166.306 31.1057 166.132 32.0458 165.782 32.9252C165.466 33.7487 164.991 34.501 164.384 35.1387C164.095 35.451 163.775 35.7331 163.429 35.9808C163.183 36.1432 162.927 36.2918 162.665 36.4258L162.366 36.6303Z" fill="white"/>
<path d="M176.555 29.7736V43.2829H183.136V34.5133V7.24194H176.555V29.7736Z" fill="white"/>
<path d="M235.833 33.4786C235.728 32.9654 235.568 32.4652 235.355 31.9869C234.933 31.0762 234.336 30.2586 233.599 29.581C232.849 28.892 231.973 28.3568 231.02 28.0051C230.525 27.8157 230.013 27.6747 229.491 27.584C228.955 27.4867 228.411 27.4384 227.866 27.4397H221.07C220.848 27.447 220.627 27.4068 220.421 27.3218C220.215 27.2368 220.029 27.1089 219.876 26.9465C219.719 26.7893 219.596 26.6015 219.514 26.3946C219.432 26.1878 219.392 25.9662 219.398 25.7435C219.4 25.5294 219.44 25.3174 219.518 25.118C219.603 24.9205 219.725 24.7409 219.876 24.5886C220.03 24.4278 220.216 24.3017 220.422 24.2187C220.628 24.1357 220.849 24.0978 221.07 24.1074H234.292V17.5513H221.07C220.261 17.5515 219.456 17.6731 218.682 17.9122C218.431 17.9964 218.18 18.0806 217.929 18.1888C215.978 19.0105 214.428 20.5758 213.617 22.5436C213.506 22.7886 213.414 23.042 213.343 23.3015C212.864 24.8937 212.864 26.5932 213.343 28.1855C213.418 28.4437 213.51 28.6968 213.617 28.9434C214.024 29.9169 214.612 30.8029 215.349 31.5538C216.087 32.3062 216.963 32.9068 217.929 33.3222C218.176 33.4265 218.427 33.5227 218.682 33.6109C219.456 33.8499 220.261 33.9716 221.07 33.9718H227.866C228.073 33.9523 228.281 33.9523 228.487 33.9718C228.668 34.0022 228.845 34.0548 229.013 34.1282C229.176 34.213 229.309 34.3461 229.395 34.5096C229.48 34.6731 229.514 34.8591 229.491 35.0424C229.5 35.2656 229.463 35.4883 229.38 35.6957C229.298 35.9031 229.173 36.0905 229.013 36.2454C228.857 36.4039 228.671 36.5284 228.466 36.6112C228.26 36.6939 228.04 36.7332 227.819 36.7266H212.913V43.2708H227.831C228.376 43.2741 228.92 43.2217 229.455 43.1144L229.67 43.0542C230.12 42.9541 230.559 42.8132 230.984 42.6332C231.951 42.2263 232.828 41.6292 233.564 40.8768C234.302 40.126 234.897 39.2453 235.319 38.2784C235.532 37.7836 235.692 37.2675 235.797 36.7386C235.908 36.1924 235.964 35.6362 235.964 35.0785C235.975 34.5421 235.931 34.006 235.833 33.4786Z" fill="white"/>
<path d="M210.523 22.1106C210.219 21.6918 209.892 21.2903 209.544 20.9076C209.19 20.5108 208.811 20.1371 208.409 19.7888C207.628 19.0969 206.765 18.5031 205.841 18.0205C205.383 17.7836 204.912 17.5708 204.432 17.3829C203.942 17.2014 203.444 17.0448 202.939 16.9137C202.429 16.7817 201.91 16.6852 201.386 16.625C200.863 16.5623 200.337 16.5302 199.81 16.5288C199.356 16.5288 198.914 16.5288 198.472 16.5288C197.183 16.6474 195.919 16.9596 194.722 17.4551C193.944 17.7834 193.201 18.1862 192.5 18.6581C189.762 20.5157 187.837 23.3627 187.125 26.6097C187.125 26.8142 187.018 27.0067 186.982 27.2112C186.811 28.176 186.727 29.1544 186.731 30.1344C186.728 31.0944 186.812 32.0528 186.982 32.9974C187.153 33.8954 187.414 34.7739 187.758 35.6199C188.406 37.2225 189.36 38.6816 190.565 39.9145C191.157 40.5097 191.805 41.0455 192.5 41.5145C193.201 41.9857 193.945 42.3885 194.722 42.7174C195.918 43.2207 197.182 43.541 198.472 43.6678C198.914 43.6678 199.356 43.7279 199.81 43.7279C200.86 43.7314 201.907 43.6062 202.927 43.355C203.43 43.2336 203.924 43.081 204.408 42.8979C204.892 42.7174 205.362 42.5044 205.817 42.2603C206.278 42.0247 206.722 41.7553 207.143 41.4543L207.418 41.2498C207.74 41.0092 208.075 40.7686 208.373 40.504C209.161 39.8214 209.859 39.0413 210.452 38.1823L205.113 34.3327C204.984 34.529 204.845 34.7177 204.695 34.8981C204.293 35.3646 203.826 35.7698 203.309 36.1011C202.791 36.426 202.233 36.6808 201.649 36.859H201.41C201.19 36.9198 200.967 36.968 200.741 37.0033C200.433 37.0522 200.122 37.0763 199.81 37.0755C199.547 37.0755 199.296 37.0755 199.045 37.0755L198.281 36.9191L199.475 35.4876L210.523 22.1106ZM194.996 32.3478L194.041 33.623C193.91 33.3786 193.805 33.1204 193.73 32.8531C193.659 32.5644 193.587 32.2636 193.527 31.9509C193.467 31.6381 193.456 31.4697 193.432 31.2291V31.0246C193.432 30.7238 193.432 30.4472 193.432 30.2066C193.417 29.217 193.587 28.2335 193.933 27.3074C194.242 26.4892 194.709 25.7409 195.307 25.106C195.89 24.4955 196.594 24.0159 197.373 23.6985C197.758 23.5342 198.158 23.4093 198.568 23.3256C198.996 23.2421 199.433 23.2018 199.869 23.2053C200.176 23.187 200.483 23.187 200.789 23.2053C201.097 23.2315 201.399 23.3045 201.685 23.4218L194.996 32.3478Z" fill="white"/>
</g>
<defs>
<clipPath id="clip0_1_6095">
<rect width="236" height="47" fill="white"/>
</clipPath>
</defs>
</svg>
